<svg version="1.1" xmlns="http://www.w3.org/2000/svg" width="250px" height="250px" transform="rotate(0) scale(1, 1)">
<path d="M0 0 C24.57380517 20.48345567 40.03556344 49.19275792 44 81 C46.1282061 119.85076924 37.02191157 152.63912912 10.8125 182.0625 C-9.08018073 203.66177258 -38.87351183 218.61496754 -68.33886719 220.17700195 C-84.26566955 220.45924054 -99.60289983 220.67288551 -115 216 C-116.21945313 215.63777344 -117.43890625 215.27554688 -118.6953125 214.90234375 C-150.671538 204.35090469 -176.5918964 181.84675244 -192.05224609 151.96630859 C-196.62773343 142.6507156 -199.79702678 133.13785307 -202 123 C-202.17660156 122.22414551 -202.35320312 121.44829102 -202.53515625 120.64892578 C-204.20522025 112.61919844 -204.3998389 104.67919776 -204.375 96.5 C-204.37412384 95.7941275 -204.37324768 95.088255 -204.37234497 94.36099243 C-204.32529823 82.84626186 -203.47458199 72.03198252 -200 61 C-199.75330566 60.20851563 -199.50661133 59.41703125 -199.25244141 58.6015625 C-188.79966994 26.05616232 -166.4032231 0.0073333 -136.25488281 -15.88183594 C-91.88902433 -37.88222916 -38.04003665 -31.10064248 0 0 Z M-102 -13 C-99.7392746 -3.31445564 -97.45165321 6.36054531 -95 16 C-95.61746094 16.09796875 -96.23492187 16.1959375 -96.87109375 16.296875 C-103.06564802 17.39058626 -108.37341119 19.20029639 -114 22 C-112.53967505 27.31027254 -110.01679014 31.46330032 -107 36 C-105.97519531 35.72285156 -104.95039062 35.44570312 -103.89453125 35.16015625 C-102.53387669 34.79418709 -101.17319834 34.42830635 -99.8125 34.0625 C-98.80219727 33.78889648 -98.80219727 33.78889648 -97.77148438 33.50976562 C-94.18799061 32.54834047 -90.64288744 31.72857749 -87 31 C-87 21.1 -87 11.2 -87 1 C-78.75 1.66 -70.5 2.32 -62 3 C-61.34 0.916875 -60.68 -1.16625 -60 -3.3125 C-59.62875 -4.48425781 -59.2575 -5.65601563 -58.875 -6.86328125 C-57.86565228 -9.93886676 -57.86565228 -9.93886676 -58 -13 C-71.57816352 -16.63816822 -88.42183648 -16.63816822 -102 -13 Z M-45 -9 C-46.17300089 -4.89761656 -47.33731306 -0.79281741 -48.5 3.3125 C-48.83386719 4.47974609 -49.16773438 5.64699219 -49.51171875 6.84960938 C-49.82753906 7.96787109 -50.14335937 9.08613281 -50.46875 10.23828125 C-50.90864258 11.7857605 -50.90864258 11.7857605 -51.35742188 13.36450195 C-52.11843872 16.03365263 -52.11843872 16.03365263 -52 19 C-53.01320312 18.71125 -54.02640625 18.4225 -55.0703125 18.125 C-56.42176313 17.74959705 -57.77333201 17.37461959 -59.125 17 C-60.12273437 16.71382812 -60.12273437 16.71382812 -61.140625 16.421875 C-65.39265028 15.25465237 -68.46641171 15 -73 15 C-73 20.28 -73 25.56 -73 31 C-66.4 32.65 -59.8 34.3 -53 36 C-48.38 28.08 -43.76 20.16 -39 12 C-31.31161346 13.92209663 -24.84891849 18.76675714 -19 24 C-15.54798361 22.52278578 -13.35038064 20.56205999 -10.75 17.875 C-9.69039062 16.78832031 -9.69039062 16.78832031 -8.609375 15.6796875 C-7.81273437 14.84824219 -7.81273437 14.84824219 -7 14 C-8.52616853 9.81503473 -11.54761378 7.72616588 -15.0625 5.25 C-15.67085693 4.81824463 -16.27921387 4.38648926 -16.90600586 3.94165039 C-25.25822601 -1.78399278 -34.95727281 -7.19989872 -45 -9 Z M-153 12 C-151.54700171 15.36152609 -149.70957052 17.50218106 -147.0859375 20.0390625 C-146.32539063 20.78414062 -145.56484375 21.52921875 -144.78125 22.296875 C-143.9871875 23.06515625 -143.193125 23.8334375 -142.375 24.625 C-140.79497816 26.15421728 -139.21921026 27.68784633 -137.6484375 29.2265625 C-136.94895996 29.90283691 -136.24948242 30.57911133 -135.52880859 31.27587891 C-134 33 -134 33 -134 35 C-135.3203125 36.19140625 -135.3203125 36.19140625 -137.125 37.5625 C-141.41212567 41.08126099 -144.14422034 45.29267089 -147 50 C-145.09564732 51.22764874 -143.1760079 52.43161233 -141.25 53.625 C-139.64898437 54.63433594 -139.64898437 54.63433594 -138.015625 55.6640625 C-135.22772371 57.24719651 -135.22772371 57.24719651 -133 56.59375 C-130.03009731 54.2271088 -127.39163402 51.5987901 -124.75 48.875 C-124.19570312 48.31167969 -123.64140625 47.74835938 -123.0703125 47.16796875 C-121.70895515 45.78313972 -120.35385141 44.39216796 -119 43 C-120.28198327 39.61040633 -121.74972036 36.53879746 -123.6015625 33.42578125 C-124.09140625 32.59369141 -124.58125 31.76160156 -125.0859375 30.90429688 C-126.11916062 29.16433866 -127.15302363 27.42476027 -128.1875 25.68554688 C-128.67476562 24.85732422 -129.16203125 24.02910156 -129.6640625 23.17578125 C-130.11217285 22.42208252 -130.5602832 21.66838379 -131.02197266 20.8918457 C-132 19 -132 19 -132 17 C-129.62552587 15.72817607 -127.25044103 14.45751576 -124.875 13.1875 C-124.20984375 12.83107422 -123.5446875 12.47464844 -122.859375 12.10742188 C-122.20195313 11.75615234 -121.54453125 11.40488281 -120.8671875 11.04296875 C-120.27019043 10.72352295 -119.67319336 10.40407715 -119.05810547 10.07495117 C-116.39014314 8.68147096 -113.69218277 7.34609139 -111 6 C-112.32 1.05 -113.64 -3.9 -115 -9 C-127.68083879 -9 -143.96938788 4.27109774 -153 12 Z M-165.62890625 24.625 C-172.75530191 33.37822941 -185 49.12351017 -185 61 C-180.89761656 62.17300089 -176.79281741 63.33731306 -172.6875 64.5 C-171.52025391 64.83386719 -170.35300781 65.16773438 -169.15039062 65.51171875 C-168.03212891 65.82753906 -166.91386719 66.14335938 -165.76171875 66.46875 C-164.73006592 66.76201172 -163.69841309 67.05527344 -162.63549805 67.35742188 C-159.96634737 68.11843872 -159.96634737 68.11843872 -157 68 C-157.28875 69.01320312 -157.5775 70.02640625 -157.875 71.0703125 C-158.25040295 72.42176313 -158.62538041 73.77333201 -159 75.125 C-159.19078125 75.79015625 -159.3815625 76.4553125 -159.578125 77.140625 C-160.74534763 81.39265028 -161 84.46641171 -161 89 C-155.72 89 -150.44 89 -145 89 C-144.0409375 85.16375 -144.0409375 85.16375 -143.0625 81.25 C-142.04166667 77.16666667 -141.02083333 73.08333333 -140 69 C-143.6243546 66.85307514 -147.24959196 64.7076454 -150.875 62.5625 C-151.90753906 61.95083984 -152.94007813 61.33917969 -154.00390625 60.70898438 C-154.99003906 60.12568359 -155.97617188 59.54238281 -156.9921875 58.94140625 C-158.35899658 58.13231812 -158.35899658 58.13231812 -159.75341797 57.30688477 C-161.14586088 56.49687098 -162.55916147 55.72041926 -164 55 C-162.52572588 47.38291704 -157.06946732 40.66587524 -152 35 C-153.46966358 31.60140297 -155.38037514 29.35036291 -158 26.75 C-158.70125 26.04359375 -159.4025 25.3371875 -160.125 24.609375 C-162.5921388 22.49174753 -163.29747407 22.29915878 -165.62890625 24.625 Z M0.02880859 24.74414062 C-1.1494751 25.93813477 -1.1494751 25.93813477 -2.3515625 27.15625 C-3.20234375 28.01347656 -4.053125 28.87070312 -4.9296875 29.75390625 C-5.81914062 30.66011719 -6.70859375 31.56632812 -7.625 32.5 C-8.5221875 33.40621094 -9.419375 34.31242187 -10.34375 35.24609375 C-12.56701538 37.49301089 -14.78549657 39.74445216 -17 42 C-20.08153547 40.97282151 -21.26882353 39.83594686 -23.4609375 37.54296875 C-26.47686661 34.519385 -29.7652703 31.78523872 -33 29 C-36.23212968 32.8092957 -38.8683452 36.49073024 -41 41 C-39.78901738 45.28430973 -35.97817955 48.24041983 -32.875 51.25 C-32.31167969 51.80429688 -31.74835938 52.35859375 -31.16796875 52.9296875 C-29.78313972 54.29104485 -28.39216796 55.64614859 -27 57 C-19.42832637 53.31235492 -12.0138787 49.58330388 -4.890625 45.06640625 C-3 44 -3 44 -1 44 C0.27182393 46.37447413 1.54248424 48.74955897 2.8125 51.125 C3.16892578 51.79015625 3.52535156 52.4553125 3.89257812 53.140625 C4.24384766 53.79804687 4.59511719 54.45546875 4.95703125 55.1328125 C5.27647705 55.72980957 5.59592285 56.32680664 5.92504883 56.94189453 C7.31852904 59.60985686 8.65390861 62.30781723 10 65 C14.95 63.68 19.9 62.36 25 61 C22.02628498 48.91928274 16.13191868 38.39438893 8.625 28.5625 C7.98195923 27.71981567 7.98195923 27.71981567 7.32592773 26.86010742 C6.27050062 25.52940639 5.14122547 24.2578935 4 23 C1.81096779 22.77911402 1.81096779 22.77911402 0.02880859 24.74414062 Z M-73 44 C-73 46.64 -73 49.28 -73 52 C-68.05 52.99 -68.05 52.99 -63 54 C-60.7763932 50.2981424 -60.7763932 50.2981424 -61 47 C-66.94 45.515 -66.94 45.515 -73 44 Z M-93.5625 45.5 C-94.57441406 45.7784375 -95.58632812 46.056875 -96.62890625 46.34375 C-97.41136719 46.5603125 -98.19382812 46.776875 -99 47 C-98.34414811 50.60992379 -98.34414811 50.60992379 -97 54 C-93.7 53.34 -90.4 52.68 -87 52 C-87 49.36 -87 46.72 -87 44 C-89.19848934 44 -91.46622194 44.9217164 -93.5625 45.5 Z M-114.9453125 56.6796875 C-115.66460937 57.40414062 -116.38390625 58.12859375 -117.125 58.875 C-117.84945312 59.59429687 -118.57390625 60.31359375 -119.3203125 61.0546875 C-121.21784691 62.82394138 -121.21784691 62.82394138 -121 65 C-119.02 65.99 -117.04 66.98 -115 68 C-112.69 65.69 -110.38 63.38 -108 61 C-109.485 58.03 -109.485 58.03 -111 55 C-113.17605862 54.78215309 -113.17605862 54.78215309 -114.9453125 56.6796875 Z M-49 55 C-49.99 56.98 -50.98 58.96 -52 61 C-50.14448584 63.19983637 -48.28824106 65.24478451 -46 67 C-43.08488023 66.93374728 -41.57046723 66.28523361 -39 65 C-40.59092052 60.86360664 -43.60474918 57.76786752 -47 55 C-47.66 55 -48.32 55 -49 55 Z M-13.5625 65 C-15.686875 66.32 -17.81125 67.64 -20 69 C-18.35 75.6 -16.7 82.2 -15 89 C-5.1 89 4.8 89 15 89 C14.34 97.25 13.68 105.5 13 114 C18.28 115.32 23.56 116.64 29 118 C32.35107041 104.17683456 32.69916613 87.80581644 29 74 C19.18877881 75.76923661 9.62002647 78.41227214 0 81 C-0.16894775 80.00178223 -0.16894775 80.00178223 -0.34130859 78.98339844 C-1.44699878 72.60289232 -3.40502319 66.92057816 -6 61 C-8.47900493 61 -11.43438219 63.672583 -13.5625 65 Z M-189 74 C-192.24540167 88.2565859 -192.24540167 103.7434141 -189 118 C-179.31445564 115.7392746 -169.63945469 113.45165321 -160 111 C-159.90203125 111.61746094 -159.8040625 112.23492187 -159.703125 112.87109375 C-158.60941374 119.06564802 -156.79970361 124.37341119 -154 130 C-148.68972746 128.53967505 -144.53669968 126.01679014 -140 123 C-140.27714844 121.97519531 -140.55429688 120.95039063 -140.83984375 119.89453125 C-141.20581291 118.53387669 -141.57169365 117.17319834 -141.9375 115.8125 C-142.11990234 115.13896484 -142.30230469 114.46542969 -142.49023438 113.77148438 C-143.45165953 110.18799061 -144.27142251 106.64288744 -145 103 C-154.9 103 -164.8 103 -175 103 C-174.34 94.75 -173.68 86.5 -173 78 C-176.1246875 77.01 -176.1246875 77.01 -179.3125 76 C-180.48425781 75.62875 -181.65601563 75.2575 -182.86328125 74.875 C-185.93886676 73.86565228 -185.93886676 73.86565228 -189 74 Z M-128 76 C-130.02055843 80.39251833 -131.40895235 84.15340923 -132 89 C-129.36 89 -126.72 89 -124 89 C-123.34 85.7 -122.68 82.4 -122 79 C-123.98 78.01 -125.96 77.02 -128 76 Z M-33 76 C-35.62387135 77.39092892 -35.62387135 77.39092892 -38 79 C-37.34 82.3 -36.68 85.6 -36 89 C-33.36 89 -30.72 89 -28 89 C-28.44829514 87.01853549 -28.90892498 85.03985789 -29.375 83.0625 C-29.63023437 81.96035156 -29.88546875 80.85820313 -30.1484375 79.72265625 C-30.42945313 78.82417969 -30.71046875 77.92570312 -31 77 C-31.66 76.67 -32.32 76.34 -33 76 Z M-132 103 C-131.01 106.96 -130.02 110.92 -129 115 C-124.39467611 114.30697031 -124.39467611 114.30697031 -122 113 C-122.66 109.7 -123.32 106.4 -124 103 C-126.64 103 -129.28 103 -132 103 Z M-36 103 C-36.66 106.3 -37.32 109.6 -38 113 C-34.2981424 115.2236068 -34.2981424 115.2236068 -31 115 C-30.01 111.04 -29.02 107.08 -28 103 C-30.64 103 -33.28 103 -36 103 Z M-15 103 C-16.65 109.6 -18.3 116.2 -20 123 C-8.12 129.93 -8.12 129.93 4 137 C3.01197711 141.94011445 1.44352994 144.64447963 -1.4375 148.5625 C-3.8981098 151.96381686 -6.11195366 155.22390733 -8 159 C-4.7 162.3 -1.4 165.6 2 169 C10.48548694 164.75725653 15.26882646 153.90224062 19.4375 145.625 C19.76717773 144.97192871 20.09685547 144.31885742 20.43652344 143.64599609 C22.45228597 139.50599478 23.85331311 135.45997814 25 131 C21.08592163 129.82452599 17.16834707 128.66115777 13.25 127.5 C12.13882813 127.16613281 11.02765625 126.83226562 9.8828125 126.48828125 C8.81289062 126.17246094 7.74296875 125.85664063 6.640625 125.53125 C5.65610352 125.23798828 4.67158203 124.94472656 3.65722656 124.64257812 C0.8076471 123.8433014 0.8076471 123.8433014 -3 124 C-2.566875 122.35451172 -2.566875 122.35451172 -2.125 120.67578125 C-1.74968495 119.22143543 -1.37470245 117.76700377 -1 116.3125 C-0.71382812 115.2306543 -0.71382812 115.2306543 -0.421875 114.12695312 C-0.24140625 113.42119141 -0.0609375 112.71542969 0.125 111.98828125 C0.29257813 111.34415283 0.46015625 110.70002441 0.6328125 110.03637695 C1.14787701 107.52476163 1.14787701 107.52476163 1 103 C-4.28 103 -9.56 103 -15 103 Z M-121 127 C-119.40907948 131.13639336 -116.39525082 134.23213248 -113 137 C-112.34 137 -111.68 137 -111 137 C-110.01 135.02 -109.02 133.04 -108 131 C-109.1427919 129.83035398 -110.28931715 128.66435444 -111.4375 127.5 C-112.39462891 126.52546875 -112.39462891 126.52546875 -113.37109375 125.53125 C-116.34153105 122.73889647 -117.8465564 125.05941933 -121 127 Z M-45 124 C-47.19983637 125.85551416 -49.24478451 127.71175894 -51 130 C-50.93374728 132.91511977 -50.28523361 134.42953277 -49 137 C-44.86360664 135.40907948 -41.76786752 132.39525082 -39 129 C-39 128.34 -39 127.68 -39 127 C-40.98 126.01 -42.96 125.02 -45 124 Z M-178.0625 129 C-179.05733398 129.28617188 -179.05733398 129.28617188 -180.07226562 129.578125 C-181.71518275 130.05090691 -183.35763504 130.52530355 -185 131 C-181.69860982 145.61552944 -173.36336017 157.62198242 -164 169 C-160.63847391 167.54700171 -158.49781894 165.70957052 -155.9609375 163.0859375 C-155.21585938 162.32539063 -154.47078125 161.56484375 -153.703125 160.78125 C-152.93484375 159.9871875 -152.1665625 159.193125 -151.375 158.375 C-149.84578272 156.79497816 -148.31215367 155.21921026 -146.7734375 153.6484375 C-146.09716309 152.94895996 -145.42088867 152.24948242 -144.72412109 151.52880859 C-143 150 -143 150 -141 150 C-139.87605975 151.39641061 -138.75386176 152.79426031 -137.640625 154.19921875 C-134.52287208 157.62132374 -130.71619277 160.26345717 -127 163 C-123.76787032 159.1907043 -121.1316548 155.50926976 -119 151 C-119.65126672 147.30948858 -122.49491374 145.67673055 -125.3359375 143.4375 C-128.23199136 140.93574455 -130.59201472 137.96301735 -133 135 C-136.38959367 136.28198327 -139.46120254 137.74972036 -142.57421875 139.6015625 C-143.40630859 140.09140625 -144.23839844 140.58125 -145.09570312 141.0859375 C-146.83566134 142.11916062 -148.57523973 143.15302363 -150.31445312 144.1875 C-151.14267578 144.67476562 -151.97089844 145.16203125 -152.82421875 145.6640625 C-153.57791748 146.11217285 -154.33161621 146.5602832 -155.1081543 147.02197266 C-157 148 -157 148 -159 148 C-160.27182393 145.62552587 -161.54248424 143.25044103 -162.8125 140.875 C-163.16892578 140.20984375 -163.52535156 139.5446875 -163.89257812 138.859375 C-165.98942672 134.93499782 -168.02980095 130.99011922 -170 127 C-172.66322768 127 -175.49539421 128.25722061 -178.0625 129 Z M-28.51220703 136.28515625 C-29.37628174 137.16494141 -29.37628174 137.16494141 -30.2578125 138.0625 C-31.19560547 139.00996094 -31.19560547 139.00996094 -32.15234375 139.9765625 C-32.80332031 140.64429688 -33.45429688 141.31203125 -34.125 142 C-35.11306641 143.00160156 -35.11306641 143.00160156 -36.12109375 144.0234375 C-37.75194324 145.67792249 -39.3779585 147.33688616 -41 149 C-37.31235492 156.57167363 -33.58330388 163.9861213 -29.06640625 171.109375 C-28 173 -28 173 -28 175 C-30.37447413 176.27182393 -32.74955897 177.54248424 -35.125 178.8125 C-35.79015625 179.16892578 -36.4553125 179.52535156 -37.140625 179.89257812 C-37.79804688 180.24384766 -38.45546875 180.59511719 -39.1328125 180.95703125 C-39.72980957 181.27647705 -40.32680664 181.59592285 -40.94189453 181.92504883 C-43.60985686 183.31852904 -46.30781723 184.65390861 -49 186 C-47.68 190.95 -46.36 195.9 -45 201 C-30.33227962 197.38948421 -18.50960426 189.47164735 -7 180 C-8.45299829 176.63847391 -10.29042948 174.49781894 -12.9140625 171.9609375 C-13.67460937 171.21585938 -14.43515625 170.47078125 -15.21875 169.703125 C-16.0128125 168.93484375 -16.806875 168.1665625 -17.625 167.375 C-19.20502184 165.84578272 -20.78078974 164.31215367 -22.3515625 162.7734375 C-23.05104004 162.09716309 -23.75051758 161.42088867 -24.47119141 160.72412109 C-26 159 -26 159 -26 157 C-24.60358939 155.87605975 -23.20573969 154.75386176 -21.80078125 153.640625 C-18.37867626 150.52287208 -15.73654283 146.71619277 -13 143 C-20.26366732 136.28526627 -20.26366732 136.28526627 -28.51220703 136.28515625 Z M-97 138 C-97.99 139.98 -98.98 141.96 -100 144 C-95.60748167 146.02055843 -91.84659077 147.40895235 -87 148 C-87 145.36 -87 142.72 -87 140 C-90.3 139.34 -93.6 138.68 -97 138 Z M-73 140 C-73 142.64 -73 145.28 -73 148 C-69.04 147.01 -65.08 146.02 -61 145 C-61 141.89448334 -61.5393715 140.64738916 -63 138 C-66.61029169 138 -69.55806676 138.96092582 -73 140 Z M-107 156 C-108.58408362 158.68705841 -110.167127 161.37472829 -111.75 164.0625 C-112.41515625 165.19075195 -112.41515625 165.19075195 -113.09375 166.34179688 C-115.76310763 170.87577932 -118.40007674 175.42583594 -121 180 C-128.61708296 178.52572588 -135.33412476 173.06946732 -141 168 C-144.45201639 169.47721422 -146.64961936 171.43794001 -149.25 174.125 C-149.95640625 174.84945312 -150.6628125 175.57390625 -151.390625 176.3203125 C-151.92171875 176.87460938 -152.4528125 177.42890625 -153 178 C-149.85762025 186.40491932 -137.27010144 191.58719124 -129.625 195.4375 C-128.97192871 195.76717773 -128.31885742 196.09685547 -127.64599609 196.43652344 C-123.50599478 198.45228597 -119.45997814 199.85331311 -115 201 C-114.01302841 197.64808052 -113.03685244 194.29310737 -112.0625 190.9375 C-111.78470703 189.99455078 -111.50691406 189.05160156 -111.22070312 188.08007812 C-109.76614081 183.05044698 -108.57054168 178.20709555 -108 173 C-106.98679688 173.28875 -105.97359375 173.5775 -104.9296875 173.875 C-103.57823687 174.25040295 -102.22666799 174.62538041 -100.875 175 C-100.20984375 175.19078125 -99.5446875 175.3815625 -98.859375 175.578125 C-94.60734972 176.74534763 -91.53358829 177 -87 177 C-87 171.72 -87 166.44 -87 161 C-89.5575 160.360625 -92.115 159.72125 -94.75 159.0625 C-98.83333333 158.04166667 -102.91666667 157.02083333 -107 156 Z M-64.484375 159.02734375 C-67.29258786 159.80428264 -70.14287437 160.42857487 -73 161 C-73 170.9 -73 180.8 -73 191 C-81.25 190.34 -89.5 189.68 -98 189 C-99.32 194.28 -100.64 199.56 -102 205 C-87.58424995 208.03489475 -72.40882746 208.28005828 -58 205 C-59.76923661 195.18877881 -62.41227214 185.62002647 -65 176 C-64.00178223 175.83105225 -64.00178223 175.83105225 -62.98339844 175.65869141 C-56.56465052 174.54637422 -50.98313808 172.56420204 -45 170 C-48.96 163.07 -48.96 163.07 -53 156 C-56.71466665 156 -60.9402145 157.99301239 -64.484375 159.02734375 Z " fill="#ffffff" transform="translate(205,29)"/>
</svg>